HIERARCHY
ROOT Hips
{
    OFFSET 0.000000 0.000000 0.000000
    CHANNELS 6 Xposition Yposition Zposition Zrotation Xrotation Yrotation
    JOINT Spine
    {
        OFFSET -0.000000 7.236184 0.000000
        CHANNELS 3 Zrotation Xrotation Yrotation
        JOINT Spine1
        {
            OFFSET -0.000000 20.420147 0.000000
            CHANNELS 3 Zrotation Xrotation Yrotation
            JOINT Neck
            {
                OFFSET -0.000000 20.336288 1.848754
                CHANNELS 3 Zrotation Xrotation Yrotation
                JOINT Head
                {
                    OFFSET -0.000000 12.354461 -1.764923
                    CHANNELS 3 Zrotation Xrotation Yrotation
                    End Site
                    {
                        OFFSET -0.000000 22.061537 0.000000
                    }
                }
            }
            JOINT LeftShoulder
            {
                OFFSET 3.573296 18.396038 -0.314103
                CHANNELS 3 Zrotation Xrotation Yrotation
                JOINT LeftArm
                {
                    OFFSET 10.880760 0.000000 0.000000
                    CHANNELS 3 Zrotation Xrotation Yrotation
                    JOINT LeftForeArm
                    {
                        OFFSET 27.185530 0.000000 0.000000
                        CHANNELS 3 Zrotation Xrotation Yrotation
                        JOINT LeftHand
                        {
                            OFFSET 27.825975 0.000000 0.000000
                            CHANNELS 3 Zrotation Xrotation Yrotation
                            End Site
                            {
                                OFFSET 13.236923 0.000000 0.000000
                            }
                        }
                    }
                }
            }
            JOINT RightShoulder
            {
                OFFSET -3.474926 18.396038 -0.314103
                CHANNELS 3 Zrotation Xrotation Yrotation
                JOINT RightArm
                {
                    OFFSET -10.880760 0.000000 0.000000
                    CHANNELS 3 Zrotation Xrotation Yrotation
                    JOINT RightForeArm
                    {
                        OFFSET -27.185530 0.000000 0.000000
                        CHANNELS 3 Zrotation Xrotation Yrotation
                        JOINT RightHand
                        {
                            OFFSET -27.825975 0.000000 0.000000
                            CHANNELS 3 Zrotation Xrotation Yrotation
                            End Site
                            {
                                OFFSET -13.236923 0.000000 0.000000
                            }
                        }
                    }
                }
            }
        }
    }
    JOINT LeftUpLeg
    {
        OFFSET 8.824615 0.000000 0.000000
        CHANNELS 3 Zrotation Xrotation Yrotation
        JOINT LeftLeg
        {
            OFFSET -0.000000 -35.111282 0.000000
            CHANNELS 3 Zrotation Xrotation Yrotation
            JOINT LeftFoot
            {
                OFFSET -0.000000 -42.324711 0.000000
                CHANNELS 3 Zrotation Xrotation Yrotation
                JOINT LeftToeBase
                {
                    OFFSET -0.000000 -5.735999 13.236923
                    CHANNELS 3 Zrotation Xrotation Yrotation
                    End Site
                    {
                        OFFSET -0.000000 0.000000 3.529846
                    }
                }
            }
        }
    }
    JOINT RightUpLeg
    {
        OFFSET -8.824615 0.000000 0.000000
        CHANNELS 3 Zrotation Xrotation Yrotation
        JOINT RightLeg
        {
            OFFSET -0.000000 -35.111282 0.000000
            CHANNELS 3 Zrotation Xrotation Yrotation
            JOINT RightFoot
            {
                OFFSET -0.000000 -42.324711 0.000000
                CHANNELS 3 Zrotation Xrotation Yrotation
                JOINT RightToeBase
                {
                    OFFSET -0.000000 -5.735999 13.236923
                    CHANNELS 3 Zrotation Xrotation Yrotation
                    End Site
                    {
                        OFFSET -0.000000 0.000000 3.529846
                    }
                }
            }
        }
    }
}
MOTION
Frames:    8
Frame Time:    0.008333
-3.653466    82.147743    94.503189    2.219453    -4.569122    -173.584396    1.702724    -14.816811    3.866388    -11.286743    5.057813    4.145089    8.903687    8.113055    -13.441142    21.748999    12.349418    -13.992498    2.727762    17.444429    -5.079782    -43.661362    43.951981    -35.749943    -3.932260    -2.593873    -16.045479    15.929529    -2.645322    3.593560    -14.230094    -3.430916    4.291673    20.298395    -21.840891    36.537651    -29.940212    -20.803465    30.507448    -39.341244    -9.695198    -8.830832    5.005275    -2.213275    -2.530581    -3.192808    6.469162    -0.893331    1.207902    -10.124245    -9.009684    -0.836122    2.075105    0.923415    -1.753246    1.399144    -2.750917    11.852386    8.831564    -14.014382    0.000000    0.000000    0.000000    0.000000    0.000000    0.000000    
-3.625829    82.151527    94.514595    2.251129    -4.565175    -173.491806    1.732509    -14.782594    3.938698    -11.427957    5.074359    4.222019    8.997726    8.057189    -13.694729    22.120205    12.377126    -14.265619    2.804032    17.462053    -5.102033    -43.764484    43.812637    -35.661839    -3.941258    -2.634283    -16.035885    15.926270    -2.684577    3.609170    -14.420705    -3.460536    4.285507    19.684862    -21.289467    36.795231    -30.553110    -21.026327    31.487967    -39.264759    -9.468424    -8.844221    5.062337    -2.205964    -2.577238    -3.210168    6.391133    -0.931111    1.192905    -10.071925    -9.003885    -0.822347    2.083414    0.908189    -1.703016    1.373718    -2.805597    11.856646    8.875319    -14.023435    0.000000    0.000000    0.000000    0.000000    0.000000    0.000000    
-3.598345    82.155273    94.525841    2.282203    -4.561355    -173.400513    1.761801    -14.748730    4.009879    -11.566715    5.090937    4.297817    9.091418    8.004492    -13.944473    22.482298    12.397854    -14.533718    2.879278    17.481087    -5.123221    -43.865471    43.672932    -35.575516    -3.951622    -2.676899    -16.027500    15.924900    -2.726066    3.625959    -14.612137    -3.487790    4.284314    19.060551    -20.743473    37.045547    -31.183126    -21.253807    32.478729    -39.140972    -9.239963    -8.824285    5.118748    -2.199452    -2.621267    -3.227315    6.315359    -0.970482    1.177990    -10.020897    -8.997899    -0.808656    2.091564    0.893057    -1.653697    1.348125    -2.859618    11.861079    8.919039    -14.032063    0.000000    0.000000    0.000000    0.000000    0.000000    0.000000    
-3.571052    82.158974    94.536819    2.312351    -4.557794    -173.311478    1.790317    -14.715547    4.079290    -11.701275    5.107507    4.371799    9.183327    7.954260    -14.187568    22.829266    12.410950    -14.793709    2.953053    17.502899    -5.142560    -43.964497    43.532749    -35.491879    -3.963891    -2.723850    -16.020178    15.925558    -2.771834    3.644772    -14.801871    -3.510852    4.288455    18.428501    -20.205080    37.286278    -31.835091    -21.483450    33.481808    -38.975754    -9.004274    -8.767876    5.174401    -2.194231    -2.660688    -3.244441    6.243588    -1.013009    1.163342    -9.972209    -8.991229    -0.795256    2.099241    0.878246    -1.605755    1.322312    -2.912325    11.865842    8.962614    -14.039906    0.000000    0.000000    0.000000    0.000000    0.000000    0.000000    
-3.543952    82.162605    94.547447    2.341186    -4.554623    -173.225464    1.817788    -14.683508    4.146248    -11.830358    5.124480    4.443316    9.271819    7.905629    -14.421731    23.156963    12.416194    -15.043161    3.024806    17.528831    -5.158440    -44.061096    43.392178    -35.412247    -3.978396    -2.777392    -16.014000    15.928416    -2.824044    3.666456    -14.988124    -3.528583    4.298440    17.790901    -19.675455    37.516384    -32.515057    -21.713182    34.501320    -38.774944    -8.754729    -8.671839    5.228807    -2.190869    -2.693540    -3.261110    6.177517    -1.060159    1.148727    -9.926796    -8.983730    -0.782119    2.106453    0.863728    -1.559554    1.295989    -2.963593    11.870827    9.006547    -14.046824    0.000000    0.000000    0.000000    0.000000    0.000000    0.000000    
-3.517035    82.166138    94.557655    2.368455    -4.551923    -173.143143    1.843964    -14.652972    4.210361    -11.952613    5.142124    4.511915    9.356016    7.857496    -14.645073    23.460663    12.413667    -15.280118    3.094390    17.559628    -5.170212    -44.155888    43.250874    -35.337154    -3.995711    -2.839127    -16.008673    15.934068    -2.884369    3.691289    -15.169317    -3.540170    4.313983    17.150131    -19.155386    37.735653    -33.229374    -21.941170    35.540955    -38.544273    -8.484403    -8.533639    5.281855    -2.189728    -2.718661    -3.277539    6.118183    -1.113277    1.134560    -9.885180    -8.974548    -0.769299    2.112520    0.849562    -1.515457    1.269235    -3.012879    11.876225    9.050583    -14.052346    0.000000    0.000000    0.000000    0.000000    0.000000    0.000000    
-3.490302    82.169548    94.567375    2.393833    -4.549774    -173.065201    1.868548    -14.623876    4.271225    -12.066940    5.160073    4.577218    9.434546    7.809533    -14.856112    23.737818    12.403413    -15.502946    3.161081    17.596056    -5.176982    -44.248714    43.108925    -35.267071    -4.015958    -2.910590    -16.004015    15.943008    -2.954296    3.719503    -15.343763    -3.545373    4.334511    16.508484    -18.645187    37.944714    -33.984314    -22.166071    36.603088    -38.289326    -8.186365    -8.350782    5.333035    -2.191186    -2.735021    -3.293266    6.066808    -1.172691    1.120633    -9.848059    -8.963767    -0.756931    2.118229    0.835894    -1.473727    1.241875    -3.060050    11.881846    9.095012    -14.056473    0.000000    0.000000    0.000000    0.000000    0.000000    0.000000    
-3.463907    82.172783    94.576477    2.416975    -4.548236    -172.992661    1.891223    -14.596725    4.328243    -12.171801    5.178379    4.638501    9.506522    7.761055    -15.052391    23.983868    12.386338    -15.709301    3.224005    17.637993    -5.178262    -44.339821    42.966660    -35.202030    -4.039363    -2.992069    -15.999547    15.956130    -3.034036    3.750930    -15.509111    -3.544468    4.359295    15.871801    -18.148102    38.143505    -34.780552    -22.385527    37.682167    -38.017330    -7.855951    -8.123073    5.381747    -2.195313    -2.742300    -3.308044    6.024187    -1.238063    1.107077    -9.815962    -8.951150    -0.745030    2.123098    0.822745    -1.434825    1.214178    -3.104488    11.887667    9.139321    -14.058989    0.000000    0.000000    0.000000    0.000000    0.000000    0.000000    
